REM DIRINDEX 1\5,1\2\6,1\2\7,1\3\8,1\3\9,1\4\10,1\4\11,1\4\12
REM DIRNAME folder01,folder02,folder03,folder04,folder05,folder06,folder07,folder08,folder09,folder10,folder11,folder12
TITLE ""
FILE "EJE_DB3000_5th_2A_38.mp3" MP3
  TRACK 01 AUDIO
    TITLE "0:"
    INDEX 01 00:00:00
  TRACK 02 AUDIO
    TITLE "10:cjc026_07902"
    INDEX 01 00:00:05
  TRACK 03 AUDIO
    TITLE "0:"
    INDEX 01 00:01:03
  TRACK 04 AUDIO
    TITLE "11:cjc026_07903"
    INDEX 01 00:01:28
  TRACK 05 AUDIO
    TITLE "0:"
    INDEX 01 00:02:14
  TRACK 06 AUDIO
    TITLE "12:cjc026_07904"
    INDEX 01 00:02:42
  TRACK 07 AUDIO
    TITLE "0:"
    INDEX 01 00:03:39
  TRACK 08 AUDIO
    TITLE "10:cjc026_07905"
    INDEX 01 00:03:64
  TRACK 09 AUDIO
    TITLE "0:"
    INDEX 01 00:04:62
  TRACK 10 AUDIO
    TITLE "11:cjc026_07906"
    INDEX 01 00:05:12
  TRACK 11 AUDIO
    TITLE "0:"
    INDEX 01 00:06:26
  TRACK 12 AUDIO
    TITLE "12:cjc026_07907"
    INDEX 01 00:06:51
  TRACK 13 AUDIO
    TITLE "0:"
    INDEX 01 00:07:49
  TRACK 14 AUDIO
    TITLE "10:cjc026_07908"
    INDEX 01 00:07:74
  TRACK 15 AUDIO
    TITLE "0:"
    INDEX 01 00:09:59
  TRACK 16 AUDIO
    TITLE "11:cjc026_07909"
    INDEX 01 00:10:10
  TRACK 17 AUDIO
    TITLE "0:"
    INDEX 01 00:11:07
  TRACK 18 AUDIO
    TITLE "12:cjc026_07910"
    INDEX 01 00:11:33
  TRACK 19 AUDIO
    TITLE "0:"
    INDEX 01 00:13:18
  TRACK 20 AUDIO
    TITLE "10:cjc026_07911"
    INDEX 01 00:13:47
  TRACK 21 AUDIO
    TITLE "0:"
    INDEX 01 00:14:43
  TRACK 22 AUDIO
    TITLE "11:cjc026_07912"
    INDEX 01 00:14:68
  TRACK 23 AUDIO
    TITLE "0:"
    INDEX 01 00:15:68
  TRACK 24 AUDIO
    TITLE "12:cjc026_07913"
    INDEX 01 00:16:18
  TRACK 25 AUDIO
    TITLE "0:"
    INDEX 01 00:17:14
  TRACK 26 AUDIO
    TITLE "10:cjc026_07914"
    INDEX 01 00:17:39
  TRACK 27 AUDIO
    TITLE "0:"
    INDEX 01 00:18:27
  TRACK 28 AUDIO
    TITLE "11:cjc026_07915"
    INDEX 01 00:18:54
  TRACK 29 AUDIO
    TITLE "0:"
    INDEX 01 00:19:48
  TRACK 30 AUDIO
    TITLE "12:cjc026_07916"
    INDEX 01 00:20:02
  TRACK 31 AUDIO
    TITLE "0:"
    INDEX 01 00:20:67
  TRACK 32 AUDIO
    TITLE "10:cjc026_07917"
    INDEX 01 00:21:17
  TRACK 33 AUDIO
    TITLE "0:"
    INDEX 01 00:22:13
  TRACK 34 AUDIO
    TITLE "11:cjc026_07918"
    INDEX 01 00:22:38
  TRACK 35 AUDIO
    TITLE "0:"
    INDEX 01 00:23:32
  TRACK 36 AUDIO
    TITLE "12:cjc026_07919"
    INDEX 01 00:23:59
  TRACK 37 AUDIO
    TITLE "0:"
    INDEX 01 00:24:55
  TRACK 38 AUDIO
    TITLE "10:cjc026_07920"
    INDEX 01 00:25:05
  TRACK 39 AUDIO
    TITLE "0:"
    INDEX 01 00:25:74
  TRACK 40 AUDIO
    TITLE "11:cjc026_07921"
    INDEX 01 00:26:24
  TRACK 41 AUDIO
    TITLE "0:"
    INDEX 01 00:27:30
  TRACK 42 AUDIO
    TITLE "12:cjc026_07922"
    INDEX 01 00:27:55
  TRACK 43 AUDIO
    TITLE "0:"
    INDEX 01 00:28:51
  TRACK 44 AUDIO
    TITLE "10:cjc026_07923"
    INDEX 01 00:29:01
  TRACK 45 AUDIO
    TITLE "0:"
    INDEX 01 00:29:72
  TRACK 46 AUDIO
    TITLE "11:cjc026_07924"
    INDEX 01 00:30:24
  TRACK 47 AUDIO
    TITLE "0:"
    INDEX 01 00:31:22
  TRACK 48 AUDIO
    TITLE "12:cjc026_07925"
    INDEX 01 00:31:47
  TRACK 49 AUDIO
    TITLE "0:"
    INDEX 01 00:32:43
  TRACK 50 AUDIO
    TITLE "10:cjc026_07926"
    INDEX 01 00:32:70
  TRACK 51 AUDIO
    TITLE "0:"
    INDEX 01 00:33:73
  TRACK 52 AUDIO
    TITLE "11:cjc026_07927"
    INDEX 01 00:34:24
  TRACK 53 AUDIO
    TITLE "0:"
    INDEX 01 00:35:10
  TRACK 54 AUDIO
    TITLE "12:cjc026_07928"
    INDEX 01 00:35:35
  TRACK 55 AUDIO
    TITLE "0:"
    INDEX 01 00:36:38
  TRACK 56 AUDIO
    TITLE "10:cjc026_07929"
    INDEX 01 00:36:64
  TRACK 57 AUDIO
    TITLE "0:"
    INDEX 01 00:37:54
  TRACK 58 AUDIO
    TITLE "11:cjc026_07930"
    INDEX 01 00:38:06
  TRACK 59 AUDIO
    TITLE "0:"
    INDEX 01 00:39:00
  TRACK 60 AUDIO
    TITLE "12:cjc026_07931"
    INDEX 01 00:39:25
  TRACK 61 AUDIO
    TITLE "0:"
    INDEX 01 00:40:17
  TRACK 62 AUDIO
    TITLE "10:cjc026_07932"
    INDEX 01 00:40:42
  TRACK 63 AUDIO
    TITLE "0:"
    INDEX 01 00:41:36
  TRACK 64 AUDIO
    TITLE "11:cjc026_07933"
    INDEX 01 00:41:63
  TRACK 65 AUDIO
    TITLE "0:"
    INDEX 01 00:42:65
  TRACK 66 AUDIO
    TITLE "12:cjc026_07934"
    INDEX 01 00:43:15
  TRACK 67 AUDIO
    TITLE "0:"
    INDEX 01 00:44:07
  TRACK 68 AUDIO
    TITLE "10:cjc026_07935"
    INDEX 01 00:44:32
  TRACK 69 AUDIO
    TITLE "0:"
    INDEX 01 00:45:24
  TRACK 70 AUDIO
    TITLE "11:cjc026_07936"
    INDEX 01 00:45:51
  TRACK 71 AUDIO
    TITLE "0:"
    INDEX 01 00:46:41
  TRACK 72 AUDIO
    TITLE "12:cjc026_07937"
    INDEX 01 00:46:66
  TRACK 73 AUDIO
    TITLE "0:"
    INDEX 01 00:47:58
